<?xml version="1.0" encoding="UTF-8" standalone="no"?>
<!-- Created with Inkscape (http://www.inkscape.org/) -->

<svg
   width="128"
   height="128"
   viewBox="0 0 33.866666 33.866666"
   version="1.1"
   id="svg638"
   inkscape:version="1.2.1 (9c6d41e410, 2022-07-14)"
   sodipodi:docname="icon.svg"
   inkscape:export-filename="..\extpracv3\icons\icon-24.png"
   inkscape:export-xdpi="18"
   inkscape:export-ydpi="18"
   xmlns:inkscape="http://www.inkscape.org/namespaces/inkscape"
   xmlns:sodipodi="http://sodipodi.sourceforge.net/DTD/sodipodi-0.dtd"
   xmlns:xlink="http://www.w3.org/1999/xlink"
   xmlns="http://www.w3.org/2000/svg"
   xmlns:svg="http://www.w3.org/2000/svg">
  <sodipodi:namedview
     id="namedview640"
     pagecolor="#ffffff"
     bordercolor="#000000"
     borderopacity="0.25"
     inkscape:showpageshadow="2"
     inkscape:pageopacity="0"
     inkscape:pagecheckerboard="false"
     inkscape:deskcolor="#d1d1d1"
     inkscape:document-units="px"
     showgrid="false"
     inkscape:zoom="3.3965727"
     inkscape:cx="56.527569"
     inkscape:cy="50.639281"
     inkscape:window-width="1600"
     inkscape:window-height="829"
     inkscape:window-x="-8"
     inkscape:window-y="-8"
     inkscape:window-maximized="1"
     inkscape:current-layer="layer1"
     showborder="false" />
  <defs
     id="defs635">
    <color-profile
       name="Agfa-:-Swop-Standard"
       xlink:href="file:///C:/Windows/system32/spool/drivers/color/RSWOP.icm"
       id="color-profile1868" />
    <color-profile
       name="sRGB-IEC61966-2.1"
       xlink:href="file:///C:/Windows/system32/spool/drivers/color/sRGB%20Color%20Space%20Profile.icm"
       id="color-profile1870" />
  </defs>
  <g
     inkscape:label="Layer 1"
     inkscape:groupmode="layer"
     id="layer1">
    <path
       id="rect1811"
       style="fill:#ffe6d5;stroke-width:2.97299;stroke-linecap:round;stroke-linejoin:round;paint-order:fill markers stroke;stop-color:#000000"
       d="M 25.731762 0.82785643 C 24.479104 0.82993843 23.226178 0.83838394 21.973852 0.83199054 C 20.218742 0.83231022 18.463649 0.83268311 16.708541 0.83302407 C 12.572686 0.84792185 8.4352358 0.82225973 4.3005126 0.86041258 C 2.1775059 1.0300381 0.32049669 2.8759543 0.22117513 5.018815 C 0.16483946 7.0278924 0.21835746 9.0411047 0.20153808 11.051522 C 0.20962707 14.596297 0.19482662 18.141923 0.22892659 21.686014 C 0.38829398 23.829685 2.2818389 25.663861 4.4291869 25.764318 C 6.4711032 25.814978 8.5164502 25.768589 10.559562 25.783439 C 12.21312 25.783651 16.118484 25.784472 17.772041 25.784472 L 17.772041 28.820979 L 1.3198161 28.820979 L 1.3198161 33.039843 L 18.227828 33.039843 L 22.345406 33.039843 L 33.672363 33.039843 L 33.672363 25.628409 L 33.672363 20.175512 L 33.672363 3.7863321 L 33.387109 3.7863321 C 32.781775 2.1829302 31.221514 0.95999199 29.488639 0.85214435 C 28.236893 0.82618377 26.98442 0.82488271 25.731762 0.82785643 z " />
    <path
       id="path207"
       style="fill:#2e3033;fill-opacity:0.615566;stroke-width:1.33986"
       d="m 25.73176,0.82767599 c -1.252659,0.002082 -2.505802,0.0107054 -3.758129,0.004312 -1.755112,3.1968e-4 -3.509789,7.8804e-4 -5.264899,0.001129 C 12.572873,0.84801478 8.4351452,0.82241101 4.3004179,0.8605639 2.1774091,1.0301896 0.32046127,2.8761558 0.22113961,5.0190186 0.16480389,7.028098 0.21816589,9.0411771 0.2013465,11.051596 c 0.008089,3.544779 -0.006602,7.090198 0.027498,10.634293 0.15936755,2.143673 2.0529111,3.977719 4.2002613,4.078176 2.0419183,0.05066 4.0873544,0.0043 6.1304682,0.01915 1.65356,2.12e-4 5.559143,0.0011 7.212702,0.0011 V 28.82099 H 1.3198792 v 4.218962 H 22.345382 V 20.540195 H 5.4948351 V 6.0752052 H 28.376858 v 7.5184558 h 5.293495 C 33.657864,10.663046 33.700314,7.7292398 33.631859,4.8004989 33.407973,2.7234223 31.572432,0.98178628 29.488788,0.85210811 28.237041,0.8261475 26.984419,0.8248688 25.73176,0.82784252 Z"
       sodipodi:nodetypes="scccccccccccccccccccccss" />
    <path
       id="path201"
       style="fill:#2e3033;fill-opacity:0.615566;stroke-width:1.26539"
       d="m 24.51381,14.635362 c -0.623297,0 -1.132827,0.635087 -1.132827,1.412174 v 15.579136 c 0,0.777088 0.50953,1.41328 1.132827,1.41328 h 8.025478 c 0.623297,0 1.13283,-0.636192 1.13283,-1.41328 V 16.047536 c 0,-0.777108 -0.509533,-1.398978 -1.13283,-1.398978 z m 4.009991,15.27996 a 1.0141695,1.0141695 0 0 1 0.284856,0.03958 1.0141695,1.0141695 0 0 1 0.692895,1.252701 l -0.974453,-0.278256 0.970053,0.295856 a 1.0141695,1.0141695 0 0 1 -1.261506,0.675291 1.0141695,1.0141695 0 0 1 -0.681897,-1.258213 1.0141695,1.0141695 0 0 1 0.970052,-0.726986 z" />
    <path
       id="path315"
       style="font-size:16.9333px;line-height:0%;font-family:Georgia;-inkscape-font-specification:'Georgia, Normal';fill:#aa0000;stroke-width:6.39304;stroke-linecap:round;stroke-linejoin:round;paint-order:fill markers stroke"
       d="m 5.2344987,3.7861528 c 0.1713108,3.459108 -0.3585426,7.0021272 0.2827092,10.4059202 0.8046842,2.140377 3.7367012,1.573739 4.7302541,-0.110822 1.087028,-1.435177 1.710727,-3.513071 2.736546,-4.7701982 0.03728,6.9184302 0.03757,13.8401112 -0.0092,20.7596092 0.83692,1.507057 2.374338,1.331735 3.866413,1.265314 1.371536,-0.08994 3.011094,0.463742 3.806265,-1.010495 0.582438,-1.301645 0.06808,-3.05118 0.22582,-4.526248 0.01519,-5.518706 -0.05634,-11.053076 0.04103,-16.5623382 1.565977,2.1771842 2.083664,5.7406832 5.112266,6.3729362 2.112328,0.252517 2.821312,-2.142727 2.616304,-3.82145 0.03201,-2.6671252 -0.03712,-5.3346292 -0.0022,-8.0021102 -0.840349,-1.501337 -2.377806,-1.319727 -3.866412,-1.256034 -6.09455,0 -12.189101,0 -18.2836508,0 -0.418683,0.418678 -0.8373683,0.837356 -1.2560513,1.256034 z"
       inkscape:label="path315" />
  </g>
</svg>
